<svg width="25" height="25" viewBox="0 0 25 25" fill="none" xmlns="http://www.w3.org/2000/svg">
<rect x="0.5" y="0.5" width="24" height="24" rx="3.5" stroke="#D7CBFC"/>
<path d="M4 0.5H21C22.933 0.5 24.5 2.067 24.5 4V6.5H0.5V4C0.5 2.067 2.067 0.5 4 0.5Z" fill="#D7CBFC" stroke="#D7CBFC"/>
<path d="M5.02586 12V9.94H7.08586V12H5.02586ZM9.32273 12V9.94H11.3827V12H9.32273ZM13.6196 12V9.94H15.6796V12H13.6196ZM17.9165 12V9.94H19.9765V12H17.9165Z" fill="#D7CBFC"/>
<path d="M5.02586 17.5V15.44H7.08586V17.5H5.02586ZM9.32273 17.5V15.44H11.3827V17.5H9.32273ZM13.6196 17.5V15.44H15.6796V17.5H13.6196ZM17.9165 17.5V15.44H19.9765V17.5H17.9165Z" fill="#D7CBFC"/>
</svg>
