<svg width="25" height="25" viewBox="0 0 25 25" fill="none" xmlns="http://www.w3.org/2000/svg">
<rect width="25" height="25" rx="2.08333" fill="#D7CBFC"/>
<path d="M3.87724 10.7917L6.77307 3.29169H7.52307L4.70015 10.7917H3.87724ZM9.83557 10.7917L7.01265 3.29169H7.81474L10.7106 10.7917H9.83557ZM5.31474 7.76044H9.2314V8.51044H5.31474V7.76044Z" fill="#F6F7F7"/>
<path d="M15.8554 10.7917V10.0834H18.2513C18.7096 10.0834 19.0742 9.95835 19.345 9.70835C19.6158 9.45835 19.7513 9.12155 19.7513 8.69794C19.7513 8.24655 19.6089 7.88544 19.3242 7.6146C19.0395 7.34377 18.6575 7.20835 18.1783 7.20835H15.8554V6.52085H18.0638C18.536 6.52085 18.904 6.40627 19.1679 6.1771C19.4318 5.94794 19.5638 5.62502 19.5638 5.20835C19.5638 4.81947 19.4388 4.52085 19.1888 4.31252C18.9457 4.10419 18.5881 4.00002 18.1158 4.00002H15.8554V3.29169H18.1888C18.8763 3.29169 19.4179 3.45488 19.8138 3.78127C20.2165 4.10766 20.4179 4.5521 20.4179 5.1146C20.4179 5.46877 20.3381 5.78474 20.1783 6.06252C20.0186 6.3403 19.7999 6.55905 19.5221 6.71877C19.2443 6.87155 18.9249 6.94794 18.5638 6.94794L18.6158 6.72919C18.9978 6.72919 19.3381 6.81946 19.6367 7.00002C19.9422 7.18058 20.1818 7.4271 20.3554 7.7396C20.536 8.04516 20.6263 8.39585 20.6263 8.79169C20.6263 9.18752 20.529 9.53821 20.3346 9.84377C20.1471 10.1424 19.8797 10.375 19.5325 10.5417C19.1853 10.7084 18.7825 10.7917 18.3242 10.7917H15.8554ZM15.2929 10.7917V3.29169H16.1471V10.7917H15.2929Z" fill="#F6F7F7"/>
<path d="M7.50395 21.3125C6.99006 21.3125 6.51436 21.2188 6.07686 21.0313C5.64631 20.8368 5.27131 20.5695 4.95186 20.2292C4.63242 19.882 4.38589 19.4757 4.21228 19.0104C4.03867 18.5382 3.95186 18.0208 3.95186 17.4583C3.95186 16.8958 4.03867 16.382 4.21228 15.9167C4.38589 15.4445 4.62895 15.0382 4.94145 14.6979C5.26089 14.3507 5.63589 14.0833 6.06645 13.8958C6.50395 13.7014 6.97964 13.6042 7.49353 13.6042C8.05603 13.6042 8.5595 13.7188 9.00395 13.9479C9.45534 14.1771 9.82339 14.5 10.1081 14.9167C10.3998 15.3333 10.5803 15.8195 10.6498 16.375H9.79561C9.71228 15.757 9.46575 15.2708 9.05603 14.9167C8.65325 14.5556 8.13589 14.375 7.50395 14.375C6.96922 14.375 6.50047 14.507 6.0977 14.7708C5.69492 15.0278 5.38242 15.3889 5.1602 15.8542C4.93797 16.3125 4.82686 16.8472 4.82686 17.4583C4.82686 18.0695 4.93797 18.6076 5.1602 19.0729C5.38242 19.5313 5.69492 19.8924 6.0977 20.1563C6.50047 20.4132 6.96575 20.5417 7.49353 20.5417C8.13936 20.5417 8.66714 20.3611 9.07686 20C9.49353 19.6389 9.74006 19.1528 9.81645 18.5417H10.6706C10.6012 19.0972 10.4206 19.5833 10.1289 20C9.84422 20.4167 9.47617 20.7396 9.02478 20.9688C8.58034 21.1979 8.07339 21.3125 7.50395 21.3125Z" fill="#F6F7F7"/>
<path d="M15.1981 21.2083V20.4583H17.2085C17.8335 20.4583 18.3717 20.3333 18.8231 20.0833C19.2745 19.8264 19.6217 19.4688 19.8647 19.0104C20.1078 18.5521 20.2293 18.0208 20.2293 17.4167C20.2293 16.8195 20.1078 16.2986 19.8647 15.8542C19.6217 15.4097 19.2745 15.066 18.8231 14.8229C18.3786 14.5799 17.8404 14.4583 17.2085 14.4583H15.1981V13.7083H17.2085C17.9932 13.7083 18.6772 13.8646 19.2606 14.1771C19.8439 14.4826 20.2953 14.9167 20.6147 15.4792C20.9411 16.0347 21.1043 16.6875 21.1043 17.4375C21.1043 18.1875 20.9411 18.8472 20.6147 19.4167C20.2884 19.9792 19.8335 20.4201 19.2502 20.7396C18.6738 21.0521 17.9967 21.2083 17.2189 21.2083H15.1981ZM14.6877 21.2083V13.7083H15.5418V21.2083H14.6877Z" fill="#F6F7F7"/>
</svg>
